<?xml version="1.0" encoding="utf-8"?>
<!-- Generator: Adobe Illustrator 16.0.0, SVG Export Plug-In . SVG Version: 6.00 Build 0)  -->
<!DOCTYPE svg PUBLIC "-//W3C//DTD SVG 1.1//EN" "http://www.w3.org/Graphics/SVG/1.1/DTD/svg11.dtd">
<svg version="1.1" id="Layer_1" xmlns="http://www.w3.org/2000/svg" xmlns:xlink="http://www.w3.org/1999/xlink" x="0px" y="0px"
	 width="499.166px" height="451px" viewBox="1225 106 499.166 451" enable-background="new 1225 106 499.166 451"
	 xml:space="preserve">
<polygon fill="#4B104C" stroke="#4B104C" stroke-linejoin="round" stroke-miterlimit="1" points="788,182 778,61 644,61 "/>
<polygon fill="#500F4C" stroke="#500F4C" stroke-linejoin="round" stroke-miterlimit="1" points="797,311 788,182 587,264 "/>
<polygon fill="#570F4D" stroke="#570F4D" stroke-linejoin="round" stroke-miterlimit="1" points="797,311 587,264 723,400 "/>
<polygon fill="#510F4C" stroke="#510F4C" stroke-linejoin="round" stroke-miterlimit="1" points="797,311 723,400 758,436 "/>
<polygon fill="#4D0E4C" stroke="#4D0E4C" stroke-linejoin="round" stroke-miterlimit="1" points="797,537 759,508 742,551 "/>
<polygon fill="#3E0C4B" stroke="#3E0C4B" stroke-linejoin="round" stroke-miterlimit="1" points="797,884 797,856 765,884 "/>
<polygon fill="#4A104C" stroke="#4A104C" stroke-linejoin="round" stroke-miterlimit="1" points="797,61 778,61 788,182 "/>
<polygon fill="#400E4D" stroke="#400E4D" stroke-linejoin="round" stroke-miterlimit="1" points="797,61 788,182 797,311 "/>
<polygon fill="#4B0E4C" stroke="#4B0E4C" stroke-linejoin="round" stroke-miterlimit="1" points="797,625 719,583 765,662 "/>
<polygon fill="#500E4C" stroke="#500E4C" stroke-linejoin="round" stroke-miterlimit="1" points="797,625 742,551 719,583 "/>
<polygon fill="#4C0E4C" stroke="#4C0E4C" stroke-linejoin="round" stroke-miterlimit="1" points="797,625 797,537 742,551 "/>
<polygon fill="#3E0B4B" stroke="#3E0B4B" stroke-linejoin="round" stroke-miterlimit="1" points="797,739 694,775 737,813 "/>
<polygon fill="#470D4B" stroke="#470D4B" stroke-linejoin="round" stroke-miterlimit="1" points="797,739 765,662 682,722 "/>
<polygon fill="#470D4C" stroke="#470D4C" stroke-linejoin="round" stroke-miterlimit="1" points="797,739 682,722 694,775 "/>
<polygon fill="#430D4B" stroke="#430D4B" stroke-linejoin="round" stroke-miterlimit="1" points="797,839 765,884 797,856 "/>
<polygon fill="#410D4B" stroke="#410D4B" stroke-linejoin="round" stroke-miterlimit="1" points="797,839 737,813 765,884 "/>
<polygon fill="#3F0C4B" stroke="#3F0C4B" stroke-linejoin="round" stroke-miterlimit="1" points="797,839 797,739 737,813 "/>
<polygon fill="#510F4C" stroke="#510F4C" stroke-linejoin="round" stroke-miterlimit="1" points="797,473 797,311 758,436 "/>
<polygon fill="#4C0D4C" stroke="#4C0D4C" stroke-linejoin="round" stroke-miterlimit="1" points="797,473 759,508 797,537 "/>
<polygon fill="#520E4C" stroke="#520E4C" stroke-linejoin="round" stroke-miterlimit="1" points="797,473 758,436 759,508 "/>
<polygon fill="#470D4C" stroke="#470D4C" stroke-linejoin="round" stroke-miterlimit="1" points="797,679 765,662 797,739 "/>
<polygon fill="#480D4C" stroke="#480D4C" stroke-linejoin="round" stroke-miterlimit="1" points="797,679 797,625 765,662 "/>
<polygon fill="#3E0C4B" stroke="#3E0C4B" stroke-linejoin="round" stroke-miterlimit="1" points="765,884 737,813 717,858 "/>
<polygon fill="#50104C" stroke="#50104C" stroke-linejoin="round" stroke-miterlimit="1" points="788,182 644,61 587,264 "/>
<polygon fill="#54104C" stroke="#54104C" stroke-linejoin="round" stroke-miterlimit="1" points="644,61 545,169 587,264 "/>
<polygon fill="#5A104D" stroke="#5A104D" stroke-linejoin="round" stroke-miterlimit="1" points="759,508 758,436 688,536 "/>
<polygon fill="#4F0E4C" stroke="#4F0E4C" stroke-linejoin="round" stroke-miterlimit="1" points="765,662 719,583 682,722 "/>
<polygon fill="#410D4B" stroke="#410D4B" stroke-linejoin="round" stroke-miterlimit="1" points="765,884 717,858 706,884 "/>
<polygon fill="#63104E" stroke="#63104E" stroke-linejoin="round" stroke-miterlimit="1" points="723,400 613,454 688,536 "/>
<polygon fill="#580F4D" stroke="#580F4D" stroke-linejoin="round" stroke-miterlimit="1" points="758,436 723,400 688,536 "/>
<polygon fill="#58104D" stroke="#58104D" stroke-linejoin="round" stroke-miterlimit="1" points="759,508 688,536 742,551 "/>
<polygon fill="#550F4D" stroke="#550F4D" stroke-linejoin="round" stroke-miterlimit="1" points="719,583 613,687 682,722 "/>
<polygon fill="#68114E" stroke="#68114E" stroke-linejoin="round" stroke-miterlimit="1" points="723,400 587,264 573,389 "/>
<polygon fill="#560F4D" stroke="#560F4D" stroke-linejoin="round" stroke-miterlimit="1" points="742,551 693,560 719,583 "/>
<polygon fill="#5E114D" stroke="#5E114D" stroke-linejoin="round" stroke-miterlimit="1" points="742,551 688,536 693,560 "/>
<polygon fill="#420D4B" stroke="#420D4B" stroke-linejoin="round" stroke-miterlimit="1" points="737,813 694,775 717,858 "/>
<polygon fill="#61104D" stroke="#61104D" stroke-linejoin="round" stroke-miterlimit="1" points="693,560 685,556 613,687 "/>
<polygon fill="#5B0F4D" stroke="#5B0F4D" stroke-linejoin="round" stroke-miterlimit="1" points="719,583 693,560 613,687 "/>
<polygon fill="#6E124E" stroke="#6E124E" stroke-linejoin="round" stroke-miterlimit="1" points="723,400 573,389 613,454 "/>
<polygon fill="#3F0B4A" stroke="#3F0B4A" stroke-linejoin="round" stroke-miterlimit="1" points="717,858 666,760 706,884 "/>
<polygon fill="#420C4B" stroke="#420C4B" stroke-linejoin="round" stroke-miterlimit="1" points="717,858 694,775 666,760 "/>
<polygon fill="#67114D" stroke="#67114D" stroke-linejoin="round" stroke-miterlimit="1" points="693,560 688,536 685,556 "/>
<polygon fill="#4F0E4C" stroke="#4F0E4C" stroke-linejoin="round" stroke-miterlimit="1" points="694,775 682,722 666,760 "/>
<polygon fill="#490D4C" stroke="#490D4C" stroke-linejoin="round" stroke-miterlimit="1" points="706,884 666,760 528,739 "/>
<polygon fill="#490D4C" stroke="#490D4C" stroke-linejoin="round" stroke-miterlimit="1" points="706,884 528,739 398,884 "/>
<polygon fill="#65104D" stroke="#65104D" stroke-linejoin="round" stroke-miterlimit="1" points="688,536 613,454 685,556 "/>
<polygon fill="#67114E" stroke="#67114E" stroke-linejoin="round" stroke-miterlimit="1" points="685,556 613,454 613,687 "/>
<polygon fill="#490C4B" stroke="#490C4B" stroke-linejoin="round" stroke-miterlimit="1" points="682,722 613,687 666,760 "/>
<polygon fill="#871450" stroke="#871450" stroke-linejoin="round" stroke-miterlimit="1" points="613,687 613,454 391,584 "/>
<polygon fill="#52104C" stroke="#52104C" stroke-linejoin="round" stroke-miterlimit="1" points="644,61 539,162 545,169 "/>
<polygon fill="#4E0D4C" stroke="#4E0D4C" stroke-linejoin="round" stroke-miterlimit="1" points="666,760 585,714 528,739 "/>
<polygon fill="#530E4C" stroke="#530E4C" stroke-linejoin="round" stroke-miterlimit="1" points="666,760 613,687 585,714 "/>
<polygon fill="#4E104C" stroke="#4E104C" stroke-linejoin="round" stroke-miterlimit="1" points="644,61 540,61 539,162 "/>
<polygon fill="#580E4C" stroke="#580E4C" stroke-linejoin="round" stroke-miterlimit="1" points="585,714 434,714 528,739 "/>
<polygon fill="#73124F" stroke="#73124F" stroke-linejoin="round" stroke-miterlimit="1" points="585,714 391,584 434,714 "/>
<polygon fill="#70124E" stroke="#70124E" stroke-linejoin="round" stroke-miterlimit="1" points="587,264 512,287 573,389 "/>
<polygon fill="#A51852" stroke="#A51852" stroke-linejoin="round" stroke-miterlimit="1" points="613,454 573,389 382,477 "/>
<polygon fill="#D11C55" stroke="#D11C55" stroke-linejoin="round" stroke-miterlimit="1" points="613,454 382,477 391,584 "/>
<polygon fill="#6C114E" stroke="#6C114E" stroke-linejoin="round" stroke-miterlimit="1" points="613,687 391,584 585,714 "/>
<polygon fill="#540F4C" stroke="#540F4C" stroke-linejoin="round" stroke-miterlimit="1" points="528,739 423,760 398,884 "/>
<polygon fill="#61114D" stroke="#61114D" stroke-linejoin="round" stroke-miterlimit="1" points="587,264 545,169 512,287 "/>
<polygon fill="#53104D" stroke="#53104D" stroke-linejoin="round" stroke-miterlimit="1" points="540,61 483,136 539,162 "/>
<polygon fill="#8E1550" stroke="#8E1550" stroke-linejoin="round" stroke-miterlimit="1" points="573,389 512,287 364,360 "/>
<polygon fill="#C21B54" stroke="#C21B54" stroke-linejoin="round" stroke-miterlimit="1" points="573,389 364,360 382,477 "/>
<polygon fill="#4E0E4C" stroke="#4E0E4C" stroke-linejoin="round" stroke-miterlimit="1" points="423,760 383,836 398,884 "/>
<polygon fill="#4E0F4C" stroke="#4E0F4C" stroke-linejoin="round" stroke-miterlimit="1" points="540,61 457,61 480,72 "/>
<polygon fill="#4E0F4C" stroke="#4E0F4C" stroke-linejoin="round" stroke-miterlimit="1" points="540,61 480,72 483,136 "/>
<polygon fill="#5A154E" stroke="#5A154E" stroke-linejoin="round" stroke-miterlimit="1" points="545,169 539,162 483,136 "/>
<polygon fill="#5D114D" stroke="#5D114D" stroke-linejoin="round" stroke-miterlimit="1" points="545,169 483,136 512,287 "/>
<polygon fill="#4F0F4C" stroke="#4F0F4C" stroke-linejoin="round" stroke-miterlimit="1" points="483,136 480,72 468,122 "/>
<polygon fill="#69124E" stroke="#69124E" stroke-linejoin="round" stroke-miterlimit="1" points="512,287 483,136 359,307 "/>
<polygon fill="#5B0F4D" stroke="#5B0F4D" stroke-linejoin="round" stroke-miterlimit="1" points="528,739 434,714 423,760 "/>
<polygon fill="#861450" stroke="#861450" stroke-linejoin="round" stroke-miterlimit="1" points="512,287 359,307 364,360 "/>
<polygon fill="#5B104D" stroke="#5B104D" stroke-linejoin="round" stroke-miterlimit="1" points="468,122 284,144 359,307 "/>
<polygon fill="#480D4B" stroke="#480D4B" stroke-linejoin="round" stroke-miterlimit="1" points="480,72 457,61 468,122 "/>
<polygon fill="#5E104D" stroke="#5E104D" stroke-linejoin="round" stroke-miterlimit="1" points="483,136 468,122 359,307 "/>
<polygon fill="#4F0F4C" stroke="#4F0F4C" stroke-linejoin="round" stroke-miterlimit="1" points="468,122 398,61 284,144 "/>
<polygon fill="#4C0F4C" stroke="#4C0F4C" stroke-linejoin="round" stroke-miterlimit="1" points="468,122 414,61 398,61 "/>
<polygon fill="#4B0E4B" stroke="#4B0E4B" stroke-linejoin="round" stroke-miterlimit="1" points="468,122 457,61 414,61 "/>
<polygon fill="#460D4B" stroke="#460D4B" stroke-linejoin="round" stroke-miterlimit="1" points="398,61 338,61 284,144 "/>
<polygon fill="#520E4C" stroke="#520E4C" stroke-linejoin="round" stroke-miterlimit="1" points="423,760 352,813 383,836 "/>
<polygon fill="#7E134F" stroke="#7E134F" stroke-linejoin="round" stroke-miterlimit="1" points="434,714 391,584 311,612 "/>
<polygon fill="#5C0F4D" stroke="#5C0F4D" stroke-linejoin="round" stroke-miterlimit="1" points="434,714 341,790 423,760 "/>
<polygon fill="#62104D" stroke="#62104D" stroke-linejoin="round" stroke-miterlimit="1" points="434,714 311,612 341,790 "/>
<polygon fill="#B91A53" stroke="#B91A53" stroke-linejoin="round" stroke-miterlimit="1" points="382,477 364,360 324,463 "/>
<polygon fill="#4F0D4C" stroke="#4F0D4C" stroke-linejoin="round" stroke-miterlimit="1" points="423,760 341,790 352,813 "/>
<polygon fill="#C31B54" stroke="#C31B54" stroke-linejoin="round" stroke-miterlimit="1" points="391,584 382,477 324,463 "/>
<polygon fill="#9B1651" stroke="#9B1651" stroke-linejoin="round" stroke-miterlimit="1" points="391,584 324,463 277,582 "/>
<polygon fill="#83134F" stroke="#83134F" stroke-linejoin="round" stroke-miterlimit="1" points="391,584 277,582 311,612 "/>
<polygon fill="#4A0E4C" stroke="#4A0E4C" stroke-linejoin="round" stroke-miterlimit="1" points="398,884 383,836 365,884 "/>
<polygon fill="#65104E" stroke="#65104E" stroke-linejoin="round" stroke-miterlimit="1" points="341,790 311,612 221,628 "/>
<polygon fill="#460D4B" stroke="#460D4B" stroke-linejoin="round" stroke-miterlimit="1" points="383,836 348,884 365,884 "/>
<polygon fill="#4A0D4C" stroke="#4A0D4C" stroke-linejoin="round" stroke-miterlimit="1" points="383,836 352,813 348,884 "/>
<polygon fill="#400D4B" stroke="#400D4B" stroke-linejoin="round" stroke-miterlimit="1" points="278,61 0,61 193,99 "/>
<polygon fill="#470D4C" stroke="#470D4C" stroke-linejoin="round" stroke-miterlimit="1" points="352,813 321,884 348,884 "/>
<polygon fill="#901551" stroke="#901551" stroke-linejoin="round" stroke-miterlimit="1" points="364,360 359,307 270,447 "/>
<polygon fill="#9D1751" stroke="#9D1751" stroke-linejoin="round" stroke-miterlimit="1" points="364,360 270,447 324,463 "/>
<polygon fill="#6A114E" stroke="#6A114E" stroke-linejoin="round" stroke-miterlimit="1" points="270,447 132,389 209,448 "/>
<polygon fill="#60104D" stroke="#60104D" stroke-linejoin="round" stroke-miterlimit="1" points="359,307 284,144 132,389 "/>
<polygon fill="#74124E" stroke="#74124E" stroke-linejoin="round" stroke-miterlimit="1" points="359,307 132,389 270,447 "/>
<polygon fill="#490E4C" stroke="#490E4C" stroke-linejoin="round" stroke-miterlimit="1" points="338,61 278,61 284,144 "/>
<polygon fill="#4E0E4D" stroke="#4E0E4D" stroke-linejoin="round" stroke-miterlimit="1" points="352,813 341,790 321,884 "/>
<polygon fill="#4F0E4C" stroke="#4F0E4C" stroke-linejoin="round" stroke-miterlimit="1" points="284,144 68,225 132,389 "/>
<polygon fill="#871450" stroke="#871450" stroke-linejoin="round" stroke-miterlimit="1" points="324,463 221,484 277,582 "/>
<polygon fill="#8B1550" stroke="#8B1550" stroke-linejoin="round" stroke-miterlimit="1" points="324,463 270,447 221,484 "/>
<polygon fill="#470D4B" stroke="#470D4B" stroke-linejoin="round" stroke-miterlimit="1" points="341,790 191,869 321,884 "/>
<polygon fill="#4F0E4C" stroke="#4F0E4C" stroke-linejoin="round" stroke-miterlimit="1" points="341,790 221,628 191,869 "/>
<polygon fill="#410C4B" stroke="#410C4B" stroke-linejoin="round" stroke-miterlimit="1" points="321,884 191,869 201,884 "/>
<polygon fill="#4B0D4C" stroke="#4B0D4C" stroke-linejoin="round" stroke-miterlimit="1" points="221,628 73,710 191,869 "/>
<polygon fill="#6E114E" stroke="#6E114E" stroke-linejoin="round" stroke-miterlimit="1" points="311,612 277,582 221,628 "/>
<polygon fill="#70124E" stroke="#70124E" stroke-linejoin="round" stroke-miterlimit="1" points="277,582 221,484 179,546 "/>
<polygon fill="#480D4B" stroke="#480D4B" stroke-linejoin="round" stroke-miterlimit="1" points="284,144 193,99 68,225 "/>
<polygon fill="#490E4C" stroke="#490E4C" stroke-linejoin="round" stroke-miterlimit="1" points="284,144 278,61 193,99 "/>
<polygon fill="#640F4D" stroke="#640F4D" stroke-linejoin="round" stroke-miterlimit="1" points="277,582 179,546 221,628 "/>
<polygon fill="#78134F" stroke="#78134F" stroke-linejoin="round" stroke-miterlimit="1" points="270,447 209,448 221,484 "/>
<polygon fill="#4C0E4C" stroke="#4C0E4C" stroke-linejoin="round" stroke-miterlimit="1" points="132,389 68,225 39,308 "/>
<polygon fill="#3C0B4A" stroke="#3C0B4A" stroke-linejoin="round" stroke-miterlimit="1" points="191,869 73,710 156,884 "/>
<polygon fill="#430D4B" stroke="#430D4B" stroke-linejoin="round" stroke-miterlimit="1" points="193,99 58,137 68,225 "/>
<polygon fill="#5D104D" stroke="#5D104D" stroke-linejoin="round" stroke-miterlimit="1" points="221,628 179,546 96,536 "/>
<polygon fill="#510E4C" stroke="#510E4C" stroke-linejoin="round" stroke-miterlimit="1" points="221,628 96,536 73,710 "/>
<polygon fill="#65104D" stroke="#65104D" stroke-linejoin="round" stroke-miterlimit="1" points="221,484 209,448 179,546 "/>
<polygon fill="#3D0C4B" stroke="#3D0C4B" stroke-linejoin="round" stroke-miterlimit="1" points="193,99 0,61 58,137 "/>
<polygon fill="#5F104D" stroke="#5F104D" stroke-linejoin="round" stroke-miterlimit="1" points="209,448 96,536 179,546 "/>
<polygon fill="#5A0F4D" stroke="#5A0F4D" stroke-linejoin="round" stroke-miterlimit="1" points="209,448 132,389 96,536 "/>
<polygon fill="#420D4B" stroke="#420D4B" stroke-linejoin="round" stroke-miterlimit="1" points="201,884 191,869 156,884 "/>
<polygon fill="#480D4B" stroke="#480D4B" stroke-linejoin="round" stroke-miterlimit="1" points="96,536 21,673 73,710 "/>
<polygon fill="#3E0C4B" stroke="#3E0C4B" stroke-linejoin="round" stroke-miterlimit="1" points="156,884 73,710 0,884 "/>
<polygon fill="#4C0D4C" stroke="#4C0D4C" stroke-linejoin="round" stroke-miterlimit="1" points="132,389 0,473 96,536 "/>
<polygon fill="#400E4B" stroke="#400E4B" stroke-linejoin="round" stroke-miterlimit="1" points="58,137 0,61 0,76 "/>
<polygon fill="#450D4B" stroke="#450D4B" stroke-linejoin="round" stroke-miterlimit="1" points="96,536 0,584 21,673 "/>
<polygon fill="#4A0D4C" stroke="#4A0D4C" stroke-linejoin="round" stroke-miterlimit="1" points="132,389 39,308 0,473 "/>
<polygon fill="#420C4B" stroke="#420C4B" stroke-linejoin="round" stroke-miterlimit="1" points="39,308 0,316 0,473 "/>
<polygon fill="#430C4B" stroke="#430C4B" stroke-linejoin="round" stroke-miterlimit="1" points="96,536 0,512 0,527 "/>
<polygon fill="#450C4B" stroke="#450C4B" stroke-linejoin="round" stroke-miterlimit="1" points="96,536 0,527 0,571 "/>
<polygon fill="#5A174B" stroke="#5A174B" stroke-linejoin="round" stroke-miterlimit="1" points="96,536 0,571 0,572 "/>
<polygon fill="#450D4B" stroke="#450D4B" stroke-linejoin="round" stroke-miterlimit="1" points="96,536 0,572 0,584 "/>
<polygon fill="#460D4B" stroke="#460D4B" stroke-linejoin="round" stroke-miterlimit="1" points="96,536 0,473 0,512 "/>
<polygon fill="#3D0C4B" stroke="#3D0C4B" stroke-linejoin="round" stroke-miterlimit="1" points="73,710 21,673 0,884 "/>
<polygon fill="#440D4B" stroke="#440D4B" stroke-linejoin="round" stroke-miterlimit="1" points="68,225 0,316 39,308 "/>
<polygon fill="#440E4C" stroke="#440E4C" stroke-linejoin="round" stroke-miterlimit="1" points="68,225 58,137 0,76 "/>
<polygon fill="#3A0B4A" stroke="#3A0B4A" stroke-linejoin="round" stroke-miterlimit="1" points="68,225 0,76 0,316 "/>
<polygon fill="#370A4A" stroke="#370A4A" stroke-linejoin="round" stroke-miterlimit="1" points="21,673 0,584 0,884 "/>
<g>
	<polygon fill="#5C628E" stroke="#5C628E" stroke-linejoin="round" stroke-miterlimit="1" points="1722.666,277.875 1580.167,134.5 
		1666.5,195.833 	"/>
	<polygon fill="#565C88" stroke="#565C88" stroke-linejoin="round" stroke-miterlimit="1" points="1723.666,350.5 1722.666,278.5 
		1652.666,378.5 	"/>
	<polygon fill="#5F6591" stroke="#5F6591" stroke-linejoin="round" stroke-miterlimit="1" points="1687.666,242.5 1577.666,296.5 
		1652.666,378.5 	"/>
	<polygon fill="#545A86" stroke="#545A86" stroke-linejoin="round" stroke-miterlimit="1" points="1722.666,278.5 1687.666,242.5 
		1652.666,378.5 	"/>
	<polygon fill="#545A86" stroke="#545A86" stroke-linejoin="round" stroke-miterlimit="1" points="1723.666,350.5 1652.666,378.5 
		1706.666,393.5 	"/>
	<polygon fill="#646A96" stroke="#646A96" stroke-linejoin="round" stroke-miterlimit="1" points="1687.666,242.5 1551.666,106.5 
		1537.666,231.5 	"/>
	<polygon fill="#525884" stroke="#525884" stroke-linejoin="round" stroke-miterlimit="1" points="1706.666,393.5 1657.666,402.5 
		1683.666,425.5 	"/>
	<polygon fill="#5A608C" stroke="#5A608C" stroke-linejoin="round" stroke-miterlimit="1" points="1706.666,393.5 1652.666,378.5 
		1657.666,402.5 	"/>
	<polygon fill="#5D638F" stroke="#5D638F" stroke-linejoin="round" stroke-miterlimit="1" points="1657.666,402.5 1649.666,398.5 
		1577.666,529.5 	"/>
	<polygon fill="#575D89" stroke="#575D89" stroke-linejoin="round" stroke-miterlimit="1" points="1683.666,425.5 1657.666,402.5 
		1577.666,529.5 	"/>
	<polygon fill="#6A709C" stroke="#6A709C" stroke-linejoin="round" stroke-miterlimit="1" points="1687.666,242.5 1537.666,231.5 
		1577.666,296.5 	"/>
	<polygon fill="#636995" stroke="#636995" stroke-linejoin="round" stroke-miterlimit="1" points="1657.666,402.5 1652.666,378.5 
		1649.666,398.5 	"/>
	<polygon fill="#616793" stroke="#616793" stroke-linejoin="round" stroke-miterlimit="1" points="1652.666,378.5 1577.666,296.5 
		1649.666,398.5 	"/>
	<polygon fill="#636995" stroke="#636995" stroke-linejoin="round" stroke-miterlimit="1" points="1649.666,398.5 1577.666,296.5 
		1577.666,529.5 	"/>
	<polygon fill="#8389B5" stroke="#8389B5" stroke-linejoin="round" stroke-miterlimit="1" points="1577.666,529.5 1577.666,296.5 
		1355.666,426.5 	"/>
	<polygon fill="#6F75A1" stroke="#6F75A1" stroke-linejoin="round" stroke-miterlimit="1" points="1549.666,556.5 1355.666,426.5 
		1398.666,556.5 	"/>
	<polygon fill="#6C729E" stroke="#6C729E" stroke-linejoin="round" stroke-miterlimit="1" points="1551.666,106.5 1476.666,129.5 
		1537.666,231.5 	"/>
	<polygon fill="#A1A7D3" stroke="#A1A7D3" stroke-linejoin="round" stroke-miterlimit="1" points="1577.666,296.5 1537.666,231.5 
		1346.666,319.5 	"/>
	<polygon fill="#CDD3FF" stroke="#CDD3FF" stroke-linejoin="round" stroke-miterlimit="1" points="1577.666,296.5 1346.666,319.5 
		1355.666,426.5 	"/>
	<polygon fill="#686E9A" stroke="#686E9A" stroke-linejoin="round" stroke-miterlimit="1" points="1577.666,529.5 1355.666,426.5 
		1549.666,556.5 	"/>
	<polygon fill="#8A90BC" stroke="#8A90BC" stroke-linejoin="round" stroke-miterlimit="1" points="1537.666,231.5 1476.666,129.5 
		1328.666,202.5 	"/>
	<polygon fill="#BEC4F0" stroke="#BEC4F0" stroke-linejoin="round" stroke-miterlimit="1" points="1537.666,231.5 1328.666,202.5 
		1346.666,319.5 	"/>
	<polygon fill="#8288B4" stroke="#8288B4" stroke-linejoin="round" stroke-miterlimit="1" points="1476.666,129.5 1323.666,149.5 
		1328.666,202.5 	"/>
	<polygon fill="#7A80AC" stroke="#7A80AC" stroke-linejoin="round" stroke-miterlimit="1" points="1398.666,556.5 1355.666,426.5 
		1275.666,454.5 	"/>
	<polygon fill="#B5BBE7" stroke="#B5BBE7" stroke-linejoin="round" stroke-miterlimit="1" points="1346.666,319.5 1328.666,202.5 
		1288.666,305.5 	"/>
	<polygon fill="#BFC5F1" stroke="#BFC5F1" stroke-linejoin="round" stroke-miterlimit="1" points="1355.666,426.5 1346.666,319.5 
		1288.666,305.5 	"/>
	<polygon fill="#979DC9" stroke="#979DC9" stroke-linejoin="round" stroke-miterlimit="1" points="1355.666,426.5 1288.666,305.5 
		1241.666,424.5 	"/>
	<polygon fill="#7F85B1" stroke="#7F85B1" stroke-linejoin="round" stroke-miterlimit="1" points="1355.666,426.5 1241.666,424.5 
		1275.666,454.5 	"/>
	<polygon fill="#8C92BE" stroke="#8C92BE" stroke-linejoin="round" stroke-miterlimit="1" points="1328.666,202.5 1323.666,149.5 
		1234.666,289.5 	"/>
	<polygon fill="#999FCB" stroke="#999FCB" stroke-linejoin="round" stroke-miterlimit="1" points="1328.666,202.5 1234.666,289.5 
		1288.666,305.5 	"/>
	<polygon fill="#8389B5" stroke="#8389B5" stroke-linejoin="round" stroke-miterlimit="1" points="1288.666,305.5 1225.5,328.5 
		1241.666,424.5 	"/>
	<polygon fill="#878DB9" stroke="#878DB9" stroke-linejoin="round" stroke-miterlimit="1" points="1288.666,305.5 1234.666,289.5 
		1225.5,328.5 	"/>
	<polygon fill="#8288B4" points="1546.083,108.167 1408.542,124.083 1471.083,131.167 	"/>
	<polygon fill="#8F95C1" stroke="#8F95C1" stroke-miterlimit="10" points="1323.666,149.5 1469.235,129.75 1408.779,124.516 	"/>
</g>
<polygon fill="#60114B" stroke="#60114B" stroke-linejoin="round" stroke-miterlimit="1" points="1333,794.875 1190.501,651.5 
	1276.834,712.834 "/>
<polygon fill="#5A104D" stroke="#5A104D" stroke-linejoin="round" stroke-miterlimit="1" points="1334,867.5 1333,795.5 1263,895.5 
	"/>
<polygon fill="#63104E" stroke="#63104E" stroke-linejoin="round" stroke-miterlimit="1" points="1298,759.5 1188,813.5 1263,895.5 
	"/>
<polygon fill="#580F4D" stroke="#580F4D" stroke-linejoin="round" stroke-miterlimit="1" points="1333,795.5 1298,759.5 1263,895.5 
	"/>
<polygon fill="#58104D" stroke="#58104D" stroke-linejoin="round" stroke-miterlimit="1" points="1334,867.5 1263,895.5 1317,910.5 
	"/>
<polygon fill="#68114E" stroke="#68114E" stroke-linejoin="round" stroke-miterlimit="1" points="1298,759.5 1162,623.5 1148,748.5 
	"/>
<polygon fill="#560F4D" stroke="#560F4D" stroke-linejoin="round" stroke-miterlimit="1" points="1317,910.5 1268,919.5 1294,942.5 
	"/>
<polygon fill="#5E114D" stroke="#5E114D" stroke-linejoin="round" stroke-miterlimit="1" points="1317,910.5 1263,895.5 1268,919.5 
	"/>
<polygon fill="#61104D" stroke="#61104D" stroke-linejoin="round" stroke-miterlimit="1" points="1268,919.5 1260,915.5 
	1188,1046.5 "/>
<polygon fill="#5B0F4D" stroke="#5B0F4D" stroke-linejoin="round" stroke-miterlimit="1" points="1294,942.5 1268,919.5 
	1188,1046.5 "/>
<polygon fill="#6E124E" stroke="#6E124E" stroke-linejoin="round" stroke-miterlimit="1" points="1298,759.5 1148,748.5 1188,813.5 
	"/>
<polygon fill="#67114D" stroke="#67114D" stroke-linejoin="round" stroke-miterlimit="1" points="1268,919.5 1263,895.5 1260,915.5 
	"/>
<polygon fill="#65104D" stroke="#65104D" stroke-linejoin="round" stroke-miterlimit="1" points="1263,895.5 1188,813.5 1260,915.5 
	"/>
<polygon fill="#67114E" stroke="#67114E" stroke-linejoin="round" stroke-miterlimit="1" points="1260,915.5 1188,813.5 
	1188,1046.5 "/>
<polygon fill="#871450" stroke="#871450" stroke-linejoin="round" stroke-miterlimit="1" points="1188,1046.5 1188,813.5 966,943.5 
	"/>
<polygon fill="#73124F" stroke="#73124F" stroke-linejoin="round" stroke-miterlimit="1" points="1160,1073.5 966,943.5 
	1009,1073.5 "/>
<polygon fill="#70124E" stroke="#70124E" stroke-linejoin="round" stroke-miterlimit="1" points="1162,623.5 1087,646.5 1148,748.5 
	"/>
<polygon fill="#A51852" stroke="#A51852" stroke-linejoin="round" stroke-miterlimit="1" points="1188,813.5 1148,748.5 957,836.5 
	"/>
<polygon fill="#D11C55" stroke="#D11C55" stroke-linejoin="round" stroke-miterlimit="1" points="1188,813.5 957,836.5 966,943.5 
	"/>
<polygon fill="#6C114E" stroke="#6C114E" stroke-linejoin="round" stroke-miterlimit="1" points="1188,1046.5 966,943.5 
	1160,1073.5 "/>
<polygon fill="#8E1550" stroke="#8E1550" stroke-linejoin="round" stroke-miterlimit="1" points="1148,748.5 1087,646.5 939,719.5 
	"/>
<polygon fill="#C21B54" stroke="#C21B54" stroke-linejoin="round" stroke-miterlimit="1" points="1148,748.5 939,719.5 957,836.5 
	"/>
<polygon fill="#861450" stroke="#861450" stroke-linejoin="round" stroke-miterlimit="1" points="1087,646.5 934,666.5 939,719.5 
	"/>
<polygon fill="#7E134F" stroke="#7E134F" stroke-linejoin="round" stroke-miterlimit="1" points="1009,1073.5 966,943.5 886,971.5 
	"/>
<polygon fill="#B91A53" stroke="#B91A53" stroke-linejoin="round" stroke-miterlimit="1" points="957,836.5 939,719.5 899,822.5 "/>
<polygon fill="#C31B54" stroke="#C31B54" stroke-linejoin="round" stroke-miterlimit="1" points="966,943.5 957,836.5 899,822.5 "/>
<polygon fill="#9B1651" stroke="#9B1651" stroke-linejoin="round" stroke-miterlimit="1" points="966,943.5 899,822.5 852,941.5 "/>
<polygon fill="#83134F" stroke="#83134F" stroke-linejoin="round" stroke-miterlimit="1" points="966,943.5 852,941.5 886,971.5 "/>
<polygon fill="#901551" stroke="#901551" stroke-linejoin="round" stroke-miterlimit="1" points="939,719.5 934,666.5 845,806.5 "/>
<polygon fill="#9D1751" stroke="#9D1751" stroke-linejoin="round" stroke-miterlimit="1" points="939,719.5 845,806.5 899,822.5 "/>
<polygon fill="#871450" stroke="#871450" stroke-linejoin="round" stroke-miterlimit="1" points="899,822.5 835.834,845.5 
	852,941.5 "/>
<polygon fill="#8B1550" stroke="#8B1550" stroke-linejoin="round" stroke-miterlimit="1" points="899,822.5 845,806.5 
	835.834,845.5 "/>
<polygon fill="#861450" points="1162,623.5 1017.992,644.563 1087,646.5 "/>
<polygon fill="#B91A53" points="934,666 1087.625,646.5 1017.992,644.563 "/>
<g id="Layer_2">
</g>
</svg>
