<?xml version="1.0" encoding="utf-8"?>
<!-- Generator: Adobe Illustrator 16.0.0, SVG Export Plug-In . SVG Version: 6.00 Build 0)  -->
<!DOCTYPE svg PUBLIC "-//W3C//DTD SVG 1.1//EN" "http://www.w3.org/Graphics/SVG/1.1/DTD/svg11.dtd">
<svg version="1.1" id="Layer_1" xmlns="http://www.w3.org/2000/svg" xmlns:xlink="http://www.w3.org/1999/xlink" x="0px" y="0px"
	 width="1903px" height="1055px" viewBox="0 0 1903 1055" enable-background="new 0 0 1903 1055" xml:space="preserve">
<polygon fill="#3B3957" stroke="#3B3957" stroke-linejoin="round" stroke-miterlimit="1" points="1976.5,-39.5 1759.5,-56.5 
	1874.5,7.5 "/>
<polygon fill="#3A394F" stroke="#3A394F" stroke-linejoin="round" stroke-miterlimit="1" points="1991.5,1108.5 1256.5,1097.5 
	1096.5,1108.5 "/>
<polygon fill="#3A384D" stroke="#3A384D" stroke-linejoin="round" stroke-miterlimit="1" points="1991.5,1108.5 1465.5,1071.5 
	1256.5,1097.5 "/>
<polygon fill="#3C3B4F" stroke="#3C3B4F" stroke-linejoin="round" stroke-miterlimit="1" points="1991.5,1108.5 1729.5,992.5 
	1465.5,1071.5 "/>
<polygon fill="#3B3854" stroke="#3B3854" stroke-linejoin="round" stroke-miterlimit="1" points="1999.5,109.5 1716.5,278.5 
	1978.5,352.5 "/>
<polygon fill="#3F3C5C" stroke="#3F3C5C" stroke-linejoin="round" stroke-miterlimit="1" points="1999.5,109.5 1874.5,7.5 
	1716.5,278.5 "/>
<polygon fill="#544F7F" stroke="#544F7F" stroke-linejoin="round" stroke-miterlimit="1" points="1999.5,109.5 1976.5,-39.5 
	1874.5,7.5 "/>
<polygon fill="#4A485E" stroke="#4A485E" stroke-linejoin="round" stroke-miterlimit="1" points="2003.5,956.5 2003.5,923.5 
	1827.5,963.5 "/>
<polygon fill="#4D4C62" stroke="#4D4C62" stroke-linejoin="round" stroke-miterlimit="1" points="2003.5,956.5 1827.5,963.5 
	1972.5,1068.5 "/>
<polygon fill="#706E83" stroke="#706E83" stroke-linejoin="round" stroke-miterlimit="1" points="2003.5,1108.5 2003.5,1102.5 
	1991.5,1108.5 "/>
<polygon fill="#37364C" stroke="#37364C" stroke-linejoin="round" stroke-miterlimit="1" points="2003.5,526.5 1968.5,406.5 
	1804.5,490.5 "/>
<polygon fill="#37364C" stroke="#37364C" stroke-linejoin="round" stroke-miterlimit="1" points="2003.5,526.5 1804.5,490.5 
	1905.5,613.5 "/>
<polygon fill="#39374C" stroke="#39374C" stroke-linejoin="round" stroke-miterlimit="1" points="2003.5,526.5 1927.5,622.5 
	2003.5,598.5 "/>
<polygon fill="#35344B" stroke="#35344B" stroke-linejoin="round" stroke-miterlimit="1" points="2003.5,526.5 1905.5,613.5 
	1927.5,622.5 "/>
<polygon fill="#37364D" stroke="#37364D" stroke-linejoin="round" stroke-miterlimit="1" points="2003.5,526.5 1978.5,352.5 
	1968.5,406.5 "/>
<polygon fill="#393751" stroke="#393751" stroke-linejoin="round" stroke-miterlimit="1" points="2003.5,526.5 1999.5,109.5 
	1978.5,352.5 "/>
<polygon fill="#3A394E" stroke="#3A394E" stroke-linejoin="round" stroke-miterlimit="1" points="2003.5,695.5 1927.5,622.5 
	1827.5,768.5 "/>
<polygon fill="#3A384D" stroke="#3A384D" stroke-linejoin="round" stroke-miterlimit="1" points="2003.5,695.5 2003.5,598.5 
	1927.5,622.5 "/>
<polygon fill="#3D3C51" stroke="#3D3C51" stroke-linejoin="round" stroke-miterlimit="1" points="2003.5,834.5 1827.5,768.5 
	1809.5,808.5 "/>
<polygon fill="#444359" stroke="#444359" stroke-linejoin="round" stroke-miterlimit="1" points="2003.5,834.5 1827.5,963.5 
	2003.5,923.5 "/>
<polygon fill="#403F54" stroke="#403F54" stroke-linejoin="round" stroke-miterlimit="1" points="2003.5,834.5 1809.5,808.5 
	1827.5,963.5 "/>
<polygon fill="#3C3A50" stroke="#3C3A50" stroke-linejoin="round" stroke-miterlimit="1" points="2003.5,834.5 2003.5,695.5 
	1827.5,768.5 "/>
<polygon fill="#6A687D" stroke="#6A687D" stroke-linejoin="round" stroke-miterlimit="1" points="2003.5,1079.5 1991.5,1108.5 
	2003.5,1102.5 "/>
<polygon fill="#5D5D70" stroke="#5D5D70" stroke-linejoin="round" stroke-miterlimit="1" points="2003.5,1079.5 1972.5,1068.5 
	1991.5,1108.5 "/>
<polygon fill="#626076" stroke="#626076" stroke-linejoin="round" stroke-miterlimit="1" points="2003.5,1079.5 2003.5,956.5 
	1972.5,1068.5 "/>
<polygon fill="#3A3756" stroke="#3A3756" stroke-linejoin="round" stroke-miterlimit="1" points="2003.5,-56.5 1759.5,-56.5 
	1976.5,-39.5 "/>
<polygon fill="#524E7B" stroke="#524E7B" stroke-linejoin="round" stroke-miterlimit="1" points="2003.5,-56.5 1976.5,-39.5 
	1999.5,109.5 "/>
<polygon fill="#444164" stroke="#444164" stroke-linejoin="round" stroke-miterlimit="1" points="2003.5,-56.5 1999.5,109.5 
	2003.5,526.5 "/>
<polygon fill="#4C4A5F" stroke="#4C4A5F" stroke-linejoin="round" stroke-miterlimit="1" points="1991.5,1108.5 1972.5,1068.5 
	1729.5,992.5 "/>
<polygon fill="#424155" stroke="#424155" stroke-linejoin="round" stroke-miterlimit="1" points="1972.5,1068.5 1827.5,963.5 
	1729.5,992.5 "/>
<polygon fill="#39374E" stroke="#39374E" stroke-linejoin="round" stroke-miterlimit="1" points="1978.5,352.5 1780.5,416.5 
	1968.5,406.5 "/>
<polygon fill="#36354D" stroke="#36354D" stroke-linejoin="round" stroke-miterlimit="1" points="1978.5,352.5 1716.5,278.5 
	1780.5,416.5 "/>
<polygon fill="#39384D" stroke="#39384D" stroke-linejoin="round" stroke-miterlimit="1" points="1927.5,622.5 1905.5,613.5 
	1827.5,768.5 "/>
<polygon fill="#35344B" stroke="#35344B" stroke-linejoin="round" stroke-miterlimit="1" points="1968.5,406.5 1780.5,416.5 
	1804.5,490.5 "/>
<polygon fill="#2F2D42" stroke="#2F2D42" stroke-linejoin="round" stroke-miterlimit="1" points="1759.5,-56.5 952.5,-56.5 
	1431.5,95.5 "/>
<polygon fill="#383650" stroke="#383650" stroke-linejoin="round" stroke-miterlimit="1" points="1874.5,7.5 1677.5,58.5 
	1716.5,278.5 "/>
<polygon fill="#323147" stroke="#323147" stroke-linejoin="round" stroke-miterlimit="1" points="1804.5,490.5 1781.5,510.5 
	1764.5,571.5 "/>
<polygon fill="#38374C" stroke="#38374C" stroke-linejoin="round" stroke-miterlimit="1" points="1905.5,613.5 1764.5,571.5 
	1827.5,768.5 "/>
<polygon fill="#37364C" stroke="#37364C" stroke-linejoin="round" stroke-miterlimit="1" points="1905.5,613.5 1804.5,490.5 
	1764.5,571.5 "/>
<polygon fill="#38374D" stroke="#38374D" stroke-linejoin="round" stroke-miterlimit="1" points="1827.5,768.5 1764.5,571.5 
	1698.5,654.5 "/>
<polygon fill="#35344D" stroke="#35344D" stroke-linejoin="round" stroke-miterlimit="1" points="1874.5,7.5 1759.5,-56.5 
	1677.5,58.5 "/>
<polygon fill="#35334A" stroke="#35334A" stroke-linejoin="round" stroke-miterlimit="1" points="1780.5,416.5 1716.5,278.5 
	1693.5,319.5 "/>
<polygon fill="#3C3A4F" stroke="#3C3A4F" stroke-linejoin="round" stroke-miterlimit="1" points="1809.5,808.5 1711.5,794.5 
	1729.5,992.5 "/>
<polygon fill="#3F3E52" stroke="#3F3E52" stroke-linejoin="round" stroke-miterlimit="1" points="1827.5,963.5 1809.5,808.5 
	1729.5,992.5 "/>
<polygon fill="#3C3A4F" stroke="#3C3A4F" stroke-linejoin="round" stroke-miterlimit="1" points="1827.5,768.5 1711.5,794.5 
	1809.5,808.5 "/>
<polygon fill="#39384D" stroke="#39384D" stroke-linejoin="round" stroke-miterlimit="1" points="1827.5,768.5 1698.5,654.5 
	1711.5,794.5 "/>
<polygon fill="#353449" stroke="#353449" stroke-linejoin="round" stroke-miterlimit="1" points="1804.5,490.5 1780.5,416.5 
	1781.5,510.5 "/>
<polygon fill="#323148" stroke="#323148" stroke-linejoin="round" stroke-miterlimit="1" points="1716.5,278.5 1677.5,58.5 
	1641.5,269.5 "/>
<polygon fill="#343349" stroke="#343349" stroke-linejoin="round" stroke-miterlimit="1" points="1780.5,416.5 1693.5,319.5 
	1651.5,446.5 "/>
<polygon fill="#36344B" stroke="#36344B" stroke-linejoin="round" stroke-miterlimit="1" points="1781.5,510.5 1636.5,487.5 
	1764.5,571.5 "/>
<polygon fill="#333249" stroke="#333249" stroke-linejoin="round" stroke-miterlimit="1" points="1781.5,510.5 1651.5,446.5 
	1636.5,487.5 "/>
<polygon fill="#343349" stroke="#343349" stroke-linejoin="round" stroke-miterlimit="1" points="1781.5,510.5 1780.5,416.5 
	1651.5,446.5 "/>
<polygon fill="#323146" stroke="#323146" stroke-linejoin="round" stroke-miterlimit="1" points="1693.5,319.5 1634.5,354.5 
	1651.5,446.5 "/>
<polygon fill="#37364B" stroke="#37364B" stroke-linejoin="round" stroke-miterlimit="1" points="1711.5,794.5 1698.5,654.5 
	1625.5,710.5 "/>
<polygon fill="#34334A" stroke="#34334A" stroke-linejoin="round" stroke-miterlimit="1" points="1759.5,-56.5 1431.5,95.5 
	1677.5,58.5 "/>
<polygon fill="#36354A" stroke="#36354A" stroke-linejoin="round" stroke-miterlimit="1" points="1764.5,571.5 1636.5,487.5 
	1698.5,654.5 "/>
<polygon fill="#333148" stroke="#333148" stroke-linejoin="round" stroke-miterlimit="1" points="1677.5,58.5 1561.5,258.5 
	1641.5,269.5 "/>
<polygon fill="#35344A" stroke="#35344A" stroke-linejoin="round" stroke-miterlimit="1" points="1698.5,654.5 1636.5,487.5 
	1546.5,546.5 "/>
<polygon fill="#37364B" stroke="#37364B" stroke-linejoin="round" stroke-miterlimit="1" points="1711.5,794.5 1625.5,710.5 
	1346.5,918.5 "/>
<polygon fill="#39384D" stroke="#39384D" stroke-linejoin="round" stroke-miterlimit="1" points="1711.5,794.5 1346.5,918.5 
	1465.5,1071.5 "/>
<polygon fill="#3A394E" stroke="#3A394E" stroke-linejoin="round" stroke-miterlimit="1" points="1729.5,992.5 1711.5,794.5 
	1465.5,1071.5 "/>
<polygon fill="#38364D" stroke="#38364D" stroke-linejoin="round" stroke-miterlimit="1" points="1716.5,278.5 1641.5,269.5 
	1693.5,319.5 "/>
<polygon fill="#333248" stroke="#333248" stroke-linejoin="round" stroke-miterlimit="1" points="1693.5,319.5 1641.5,269.5 
	1635.5,309.5 "/>
<polygon fill="#363449" stroke="#363449" stroke-linejoin="round" stroke-miterlimit="1" points="1698.5,654.5 1546.5,546.5 
	1625.5,710.5 "/>
<polygon fill="#302F45" stroke="#302F45" stroke-linejoin="round" stroke-miterlimit="1" points="1677.5,58.5 1431.5,95.5 
	1561.5,258.5 "/>
<polygon fill="#323047" stroke="#323047" stroke-linejoin="round" stroke-miterlimit="1" points="1693.5,319.5 1635.5,309.5 
	1634.5,354.5 "/>
<polygon fill="#36354A" stroke="#36354A" stroke-linejoin="round" stroke-miterlimit="1" points="1625.5,710.5 1489.5,639.5 
	1346.5,918.5 "/>
<polygon fill="#353449" stroke="#353449" stroke-linejoin="round" stroke-miterlimit="1" points="1625.5,710.5 1546.5,546.5 
	1489.5,639.5 "/>
<polygon fill="#353448" stroke="#353448" stroke-linejoin="round" stroke-miterlimit="1" points="1651.5,446.5 1537.5,401.5 
	1636.5,487.5 "/>
<polygon fill="#323147" stroke="#323147" stroke-linejoin="round" stroke-miterlimit="1" points="1651.5,446.5 1634.5,354.5 
	1537.5,401.5 "/>
<polygon fill="#343349" stroke="#343349" stroke-linejoin="round" stroke-miterlimit="1" points="1641.5,269.5 1561.5,258.5 
	1635.5,309.5 "/>
<polygon fill="#35344A" stroke="#35344A" stroke-linejoin="round" stroke-miterlimit="1" points="1634.5,354.5 1561.5,258.5 
	1537.5,401.5 "/>
<polygon fill="#34334A" stroke="#34334A" stroke-linejoin="round" stroke-miterlimit="1" points="1635.5,309.5 1561.5,258.5 
	1634.5,354.5 "/>
<polygon fill="#343349" stroke="#343349" stroke-linejoin="round" stroke-miterlimit="1" points="1636.5,487.5 1537.5,401.5 
	1546.5,546.5 "/>
<polygon fill="#313046" stroke="#313046" stroke-linejoin="round" stroke-miterlimit="1" points="1561.5,258.5 1431.5,95.5 
	1412.5,143.5 "/>
<polygon fill="#36354B" stroke="#36354B" stroke-linejoin="round" stroke-miterlimit="1" points="1489.5,639.5 1301.5,872.5 
	1346.5,918.5 "/>
<polygon fill="#333247" stroke="#333247" stroke-linejoin="round" stroke-miterlimit="1" points="1537.5,401.5 1418.5,313.5 
	1436.5,398.5 "/>
<polygon fill="#343349" stroke="#343349" stroke-linejoin="round" stroke-miterlimit="1" points="1537.5,401.5 1436.5,398.5 
	1436.5,554.5 "/>
<polygon fill="#353449" stroke="#353449" stroke-linejoin="round" stroke-miterlimit="1" points="1546.5,546.5 1537.5,401.5 
	1436.5,554.5 "/>
<polygon fill="#313045" stroke="#313045" stroke-linejoin="round" stroke-miterlimit="1" points="1561.5,258.5 1418.5,313.5 
	1537.5,401.5 "/>
<polygon fill="#323146" stroke="#323146" stroke-linejoin="round" stroke-miterlimit="1" points="1561.5,258.5 1412.5,143.5 
	1418.5,313.5 "/>
<polygon fill="#36354A" stroke="#36354A" stroke-linejoin="round" stroke-miterlimit="1" points="1546.5,546.5 1436.5,554.5 
	1489.5,639.5 "/>
<polygon fill="#353348" stroke="#353348" stroke-linejoin="round" stroke-miterlimit="1" points="1489.5,639.5 1436.5,554.5 
	1337.5,591.5 "/>
<polygon fill="#353449" stroke="#353449" stroke-linejoin="round" stroke-miterlimit="1" points="1489.5,639.5 1337.5,591.5 
	1301.5,872.5 "/>
<polygon fill="#343449" stroke="#343449" stroke-linejoin="round" stroke-miterlimit="1" points="1337.5,591.5 1206.5,685.5 
	1301.5,872.5 "/>
<polygon fill="#323146" stroke="#323146" stroke-linejoin="round" stroke-miterlimit="1" points="1436.5,554.5 1436.5,398.5 
	1337.5,591.5 "/>
<polygon fill="#3B3A51" stroke="#3B3A51" stroke-linejoin="round" stroke-miterlimit="1" points="1465.5,1071.5 1278.5,1060.5 
	1256.5,1097.5 "/>
<polygon fill="#3B3A51" stroke="#3B3A51" stroke-linejoin="round" stroke-miterlimit="1" points="1465.5,1071.5 1346.5,918.5 
	1278.5,1060.5 "/>
<polygon fill="#424157" stroke="#424157" stroke-linejoin="round" stroke-miterlimit="1" points="180.5,-56.5 2.5,-56.5 52.5,-53.5 
	"/>
<polygon fill="#2F2E42" stroke="#2F2E42" stroke-linejoin="round" stroke-miterlimit="1" points="1431.5,95.5 952.5,-56.5 
	1412.5,143.5 "/>
<polygon fill="#302E43" stroke="#302E43" stroke-linejoin="round" stroke-miterlimit="1" points="1436.5,398.5 1418.5,313.5 
	1211.5,495.5 "/>
<polygon fill="#323146" stroke="#323146" stroke-linejoin="round" stroke-miterlimit="1" points="1436.5,398.5 1211.5,495.5 
	1337.5,591.5 "/>
<polygon fill="#2F2F42" stroke="#2F2F42" stroke-linejoin="round" stroke-miterlimit="1" points="1412.5,143.5 929.5,95.5 
	940.5,327.5 "/>
<polygon fill="#2D2C3F" stroke="#2D2C3F" stroke-linejoin="round" stroke-miterlimit="1" points="1412.5,143.5 952.5,-56.5 
	929.5,95.5 "/>
<polygon fill="#302F43" stroke="#302F43" stroke-linejoin="round" stroke-miterlimit="1" points="1418.5,313.5 1412.5,143.5 
	940.5,327.5 "/>
<polygon fill="#333146" stroke="#333146" stroke-linejoin="round" stroke-miterlimit="1" points="1418.5,313.5 940.5,327.5 
	1211.5,495.5 "/>
<polygon fill="#37364C" stroke="#37364C" stroke-linejoin="round" stroke-miterlimit="1" points="1346.5,918.5 1301.5,872.5 
	1278.5,1060.5 "/>
<polygon fill="#39384E" stroke="#39384E" stroke-linejoin="round" stroke-miterlimit="1" points="1301.5,872.5 1206.5,685.5 
	1134.5,765.5 "/>
<polygon fill="#3C3B52" stroke="#3C3B52" stroke-linejoin="round" stroke-miterlimit="1" points="1301.5,872.5 1137.5,1003.5 
	1278.5,1060.5 "/>
<polygon fill="#343348" stroke="#343348" stroke-linejoin="round" stroke-miterlimit="1" points="1337.5,591.5 1211.5,495.5 
	1206.5,685.5 "/>
<polygon fill="#3C3B52" stroke="#3C3B52" stroke-linejoin="round" stroke-miterlimit="1" points="1301.5,872.5 1134.5,765.5 
	1137.5,1003.5 "/>
<polygon fill="#333247" stroke="#333247" stroke-linejoin="round" stroke-miterlimit="1" points="1211.5,495.5 1090.5,608.5 
	1206.5,685.5 "/>
<polygon fill="#3B3B51" stroke="#3B3B51" stroke-linejoin="round" stroke-miterlimit="1" points="1278.5,1060.5 1133.5,1041.5 
	1256.5,1097.5 "/>
<polygon fill="#3D3D53" stroke="#3D3D53" stroke-linejoin="round" stroke-miterlimit="1" points="1278.5,1060.5 1137.5,1003.5 
	1133.5,1041.5 "/>
<polygon fill="#323145" stroke="#323145" stroke-linejoin="round" stroke-miterlimit="1" points="1211.5,495.5 940.5,327.5 
	1021.5,519.5 "/>
<polygon fill="#43425B" stroke="#43425B" stroke-linejoin="round" stroke-miterlimit="1" points="1256.5,1097.5 1133.5,1041.5 
	1096.5,1108.5 "/>
<polygon fill="#403F57" stroke="#403F57" stroke-linejoin="round" stroke-miterlimit="1" points="1134.5,765.5 981.5,832.5 
	983.5,940.5 "/>
<polygon fill="#3F3F57" stroke="#3F3F57" stroke-linejoin="round" stroke-miterlimit="1" points="1137.5,1003.5 1134.5,765.5 
	983.5,940.5 "/>
<polygon fill="#343348" stroke="#343348" stroke-linejoin="round" stroke-miterlimit="1" points="1211.5,495.5 1021.5,519.5 
	1090.5,608.5 "/>
<polygon fill="#36354B" stroke="#36354B" stroke-linejoin="round" stroke-miterlimit="1" points="1206.5,685.5 1090.5,608.5 
	1134.5,765.5 "/>
<polygon fill="#323145" stroke="#323145" stroke-linejoin="round" stroke-miterlimit="1" points="1021.5,519.5 940.5,327.5 
	918.5,423.5 "/>
<polygon fill="#38384E" stroke="#38384E" stroke-linejoin="round" stroke-miterlimit="1" points="1134.5,765.5 1090.5,608.5 
	981.5,832.5 "/>
<polygon fill="#43425B" stroke="#43425B" stroke-linejoin="round" stroke-miterlimit="1" points="1137.5,1003.5 983.5,940.5 
	1133.5,1041.5 "/>
<polygon fill="#494863" stroke="#494863" stroke-linejoin="round" stroke-miterlimit="1" points="1133.5,1041.5 983.5,940.5 
	941.5,1056.5 "/>
<polygon fill="#484763" stroke="#484763" stroke-linejoin="round" stroke-miterlimit="1" points="1133.5,1041.5 941.5,1056.5 
	1096.5,1108.5 "/>
<polygon fill="#38384E" stroke="#38384E" stroke-linejoin="round" stroke-miterlimit="1" points="1090.5,608.5 857.5,663.5 
	981.5,832.5 "/>
<polygon fill="#4A4965" stroke="#4A4965" stroke-linejoin="round" stroke-miterlimit="1" points="1096.5,1108.5 941.5,1056.5 
	952.5,1108.5 "/>
<polygon fill="#36354B" stroke="#36354B" stroke-linejoin="round" stroke-miterlimit="1" points="1090.5,608.5 1021.5,519.5 
	857.5,663.5 "/>
<polygon fill="#474763" stroke="#474763" stroke-linejoin="round" stroke-miterlimit="1" points="842.5,1108.5 780.5,1091.5 
	630.5,1108.5 "/>
<polygon fill="#323045" stroke="#323045" stroke-linejoin="round" stroke-miterlimit="1" points="940.5,327.5 925.5,338.5 
	918.5,423.5 "/>
<polygon fill="#302F44" stroke="#302F44" stroke-linejoin="round" stroke-miterlimit="1" points="1021.5,519.5 832.5,620.5 
	857.5,663.5 "/>
<polygon fill="#313044" stroke="#313044" stroke-linejoin="round" stroke-miterlimit="1" points="1021.5,519.5 918.5,423.5 
	852.5,467.5 "/>
<polygon fill="#343449" stroke="#343449" stroke-linejoin="round" stroke-miterlimit="1" points="1021.5,519.5 852.5,467.5 
	832.5,620.5 "/>
<polygon fill="#2E2D40" stroke="#2E2D40" stroke-linejoin="round" stroke-miterlimit="1" points="940.5,327.5 929.5,95.5 
	925.5,338.5 "/>
<polygon fill="#2B2A3D" stroke="#2B2A3D" stroke-linejoin="round" stroke-miterlimit="1" points="952.5,-56.5 840.5,-56.5 
	929.5,95.5 "/>
<polygon fill="#474662" stroke="#474662" stroke-linejoin="round" stroke-miterlimit="1" points="952.5,1108.5 941.5,1056.5 
	940.5,1097.5 "/>
<polygon fill="#42425B" stroke="#42425B" stroke-linejoin="round" stroke-miterlimit="1" points="981.5,832.5 765.5,869.5 
	837.5,985.5 "/>
<polygon fill="#38384E" stroke="#38384E" stroke-linejoin="round" stroke-miterlimit="1" points="981.5,832.5 857.5,663.5 
	800.5,711.5 "/>
<polygon fill="#45445E" stroke="#45445E" stroke-linejoin="round" stroke-miterlimit="1" points="983.5,940.5 981.5,832.5 
	837.5,985.5 "/>
<polygon fill="#4A4A66" stroke="#4A4A66" stroke-linejoin="round" stroke-miterlimit="1" points="983.5,940.5 837.5,985.5 
	941.5,1056.5 "/>
<polygon fill="#3C3C53" stroke="#3C3C53" stroke-linejoin="round" stroke-miterlimit="1" points="981.5,832.5 800.5,711.5 
	765.5,869.5 "/>
<polygon fill="#2F2E41" stroke="#2F2E41" stroke-linejoin="round" stroke-miterlimit="1" points="929.5,95.5 804.5,426.5 
	925.5,338.5 "/>
<polygon fill="#2E2E41" stroke="#2E2E41" stroke-linejoin="round" stroke-miterlimit="1" points="929.5,95.5 612.5,393.5 
	804.5,426.5 "/>
<polygon fill="#2B2B3D" stroke="#2B2B3D" stroke-linejoin="round" stroke-miterlimit="1" points="929.5,95.5 636.5,-5.5 
	612.5,393.5 "/>
<polygon fill="#565579" stroke="#565579" stroke-linejoin="round" stroke-miterlimit="1" points="952.5,1108.5 940.5,1097.5 
	842.5,1108.5 "/>
<polygon fill="#2A293B" stroke="#2A293B" stroke-linejoin="round" stroke-miterlimit="1" points="636.5,-5.5 499.5,205.5 
	612.5,393.5 "/>
<polygon fill="#4F4F6C" stroke="#4F4F6C" stroke-linejoin="round" stroke-miterlimit="1" points="941.5,1056.5 807.5,1062.5 
	842.5,1108.5 "/>
<polygon fill="#4F4E6C" stroke="#4F4E6C" stroke-linejoin="round" stroke-miterlimit="1" points="941.5,1056.5 837.5,985.5 
	807.5,1062.5 "/>
<polygon fill="#4F4F6D" stroke="#4F4F6D" stroke-linejoin="round" stroke-miterlimit="1" points="941.5,1056.5 842.5,1108.5 
	940.5,1097.5 "/>
<polygon fill="#313044" stroke="#313044" stroke-linejoin="round" stroke-miterlimit="1" points="925.5,338.5 804.5,426.5 
	918.5,423.5 "/>
<polygon fill="#2C2B3D" stroke="#2C2B3D" stroke-linejoin="round" stroke-miterlimit="1" points="929.5,95.5 840.5,-56.5 
	636.5,-5.5 "/>
<polygon fill="#303043" stroke="#303043" stroke-linejoin="round" stroke-miterlimit="1" points="918.5,423.5 804.5,426.5 
	852.5,467.5 "/>
<polygon fill="#323045" stroke="#323045" stroke-linejoin="round" stroke-miterlimit="1" points="832.5,620.5 804.5,426.5 
	625.5,520.5 "/>
<polygon fill="#44435D" stroke="#44435D" stroke-linejoin="round" stroke-miterlimit="1" points="837.5,985.5 765.5,869.5 
	760.5,972.5 "/>
<polygon fill="#262537" stroke="#262537" stroke-linejoin="round" stroke-miterlimit="1" points="840.5,-56.5 658.5,-56.5 
	636.5,-5.5 "/>
<polygon fill="#333247" stroke="#333247" stroke-linejoin="round" stroke-miterlimit="1" points="852.5,467.5 804.5,426.5 
	832.5,620.5 "/>
<polygon fill="#2F2E42" stroke="#2F2E42" stroke-linejoin="round" stroke-miterlimit="1" points="857.5,663.5 832.5,620.5 
	800.5,711.5 "/>
<polygon fill="#42425B" stroke="#42425B" stroke-linejoin="round" stroke-miterlimit="1" points="837.5,985.5 760.5,972.5 
	807.5,1062.5 "/>
<polygon fill="#4C4C69" stroke="#4C4C69" stroke-linejoin="round" stroke-miterlimit="1" points="842.5,1108.5 807.5,1062.5 
	780.5,1091.5 "/>
<polygon fill="#333348" stroke="#333348" stroke-linejoin="round" stroke-miterlimit="1" points="832.5,620.5 625.5,520.5 
	800.5,711.5 "/>
<polygon fill="#3B3B52" stroke="#3B3B52" stroke-linejoin="round" stroke-miterlimit="1" points="765.5,869.5 724.5,951.5 
	760.5,972.5 "/>
<polygon fill="#39384F" stroke="#39384F" stroke-linejoin="round" stroke-miterlimit="1" points="800.5,711.5 682.5,912.5 
	765.5,869.5 "/>
<polygon fill="#38384E" stroke="#38384E" stroke-linejoin="round" stroke-miterlimit="1" points="800.5,711.5 546.5,867.5 
	682.5,912.5 "/>
<polygon fill="#3F3E57" stroke="#3F3E57" stroke-linejoin="round" stroke-miterlimit="1" points="807.5,1062.5 760.5,972.5 
	780.5,1091.5 "/>
<polygon fill="#414059" stroke="#414059" stroke-linejoin="round" stroke-miterlimit="1" points="780.5,1091.5 760.5,972.5 
	664.5,1029.5 "/>
<polygon fill="#302F43" stroke="#302F43" stroke-linejoin="round" stroke-miterlimit="1" points="804.5,426.5 612.5,393.5 
	625.5,520.5 "/>
<polygon fill="#333247" stroke="#333247" stroke-linejoin="round" stroke-miterlimit="1" points="800.5,711.5 625.5,520.5 
	546.5,867.5 "/>
<polygon fill="#3E3D55" stroke="#3E3D55" stroke-linejoin="round" stroke-miterlimit="1" points="780.5,1091.5 664.5,1029.5 
	630.5,1108.5 "/>
<polygon fill="#282839" stroke="#282839" stroke-linejoin="round" stroke-miterlimit="1" points="612.5,393.5 499.5,205.5 
	521.5,342.5 "/>
<polygon fill="#3D3D55" stroke="#3D3D55" stroke-linejoin="round" stroke-miterlimit="1" points="760.5,972.5 724.5,951.5 
	664.5,1029.5 "/>
<polygon fill="#36364C" stroke="#36364C" stroke-linejoin="round" stroke-miterlimit="1" points="765.5,869.5 682.5,912.5 
	724.5,951.5 "/>
<polygon fill="#37364D" stroke="#37364D" stroke-linejoin="round" stroke-miterlimit="1" points="682.5,912.5 546.5,867.5 
	639.5,918.5 "/>
<polygon fill="#3B3B52" stroke="#3B3B52" stroke-linejoin="round" stroke-miterlimit="1" points="724.5,951.5 666.5,972.5 
	664.5,1029.5 "/>
<polygon fill="#333146" stroke="#333146" stroke-linejoin="round" stroke-miterlimit="1" points="625.5,520.5 394.5,766.5 
	546.5,867.5 "/>
<polygon fill="#37374D" stroke="#37374D" stroke-linejoin="round" stroke-miterlimit="1" points="724.5,951.5 682.5,912.5 
	666.5,972.5 "/>
<polygon fill="#333346" stroke="#333346" stroke-linejoin="round" stroke-miterlimit="1" points="658.5,-56.5 535.5,-56.5 
	546.5,-47.5 "/>
<polygon fill="#3F3E56" stroke="#3F3E56" stroke-linejoin="round" stroke-miterlimit="1" points="682.5,912.5 639.5,918.5 
	666.5,972.5 "/>
<polygon fill="#302F43" stroke="#302F43" stroke-linejoin="round" stroke-miterlimit="1" points="625.5,520.5 344.5,565.5 
	394.5,766.5 "/>
<polygon fill="#2A293B" stroke="#2A293B" stroke-linejoin="round" stroke-miterlimit="1" points="636.5,-5.5 546.5,-47.5 
	499.5,205.5 "/>
<polygon fill="#38384E" stroke="#38384E" stroke-linejoin="round" stroke-miterlimit="1" points="664.5,1029.5 559.5,1010.5 
	630.5,1108.5 "/>
<polygon fill="#3A3950" stroke="#3A3950" stroke-linejoin="round" stroke-miterlimit="1" points="666.5,972.5 559.5,1010.5 
	664.5,1029.5 "/>
<polygon fill="#38374E" stroke="#38374E" stroke-linejoin="round" stroke-miterlimit="1" points="666.5,972.5 639.5,918.5 
	559.5,1010.5 "/>
<polygon fill="#2A293B" stroke="#2A293B" stroke-linejoin="round" stroke-miterlimit="1" points="658.5,-56.5 546.5,-47.5 
	636.5,-5.5 "/>
<polygon fill="#2D2C3F" stroke="#2D2C3F" stroke-linejoin="round" stroke-miterlimit="1" points="518.5,1108.5 66.5,1044.5 
	-23.5,1108.5 "/>
<polygon fill="#35354A" stroke="#35354A" stroke-linejoin="round" stroke-miterlimit="1" points="630.5,1108.5 559.5,1010.5 
	518.5,1108.5 "/>
<polygon fill="#35344A" stroke="#35344A" stroke-linejoin="round" stroke-miterlimit="1" points="639.5,918.5 513.5,984.5 
	559.5,1010.5 "/>
<polygon fill="#37364C" stroke="#37364C" stroke-linejoin="round" stroke-miterlimit="1" points="639.5,918.5 546.5,867.5 
	513.5,984.5 "/>
<polygon fill="#2E2E41" stroke="#2E2E41" stroke-linejoin="round" stroke-miterlimit="1" points="625.5,520.5 612.5,393.5 
	521.5,342.5 "/>
<polygon fill="#2E2D40" stroke="#2E2D40" stroke-linejoin="round" stroke-miterlimit="1" points="625.5,520.5 521.5,342.5 
	344.5,565.5 "/>
<polygon fill="#2C2C3E" stroke="#2C2C3E" stroke-linejoin="round" stroke-miterlimit="1" points="521.5,342.5 338.5,390.5 
	344.5,565.5 "/>
<polygon fill="#282739" stroke="#282739" stroke-linejoin="round" stroke-miterlimit="1" points="535.5,-56.5 342.5,229.5 
	499.5,205.5 "/>
<polygon fill="#232232" stroke="#232232" stroke-linejoin="round" stroke-miterlimit="1" points="546.5,-47.5 535.5,-56.5 
	499.5,205.5 "/>
<polygon fill="#3A3950" stroke="#3A3950" stroke-linejoin="round" stroke-miterlimit="1" points="559.5,1010.5 513.5,984.5 
	518.5,1108.5 "/>
<polygon fill="#29283A" stroke="#29283A" stroke-linejoin="round" stroke-miterlimit="1" points="535.5,-56.5 172.5,82.5 
	342.5,229.5 "/>
<polygon fill="#29283A" stroke="#29283A" stroke-linejoin="round" stroke-miterlimit="1" points="535.5,-56.5 180.5,-56.5 
	172.5,82.5 "/>
<polygon fill="#323145" stroke="#323145" stroke-linejoin="round" stroke-miterlimit="1" points="546.5,867.5 359.5,915.5 
	513.5,984.5 "/>
<polygon fill="#313044" stroke="#313044" stroke-linejoin="round" stroke-miterlimit="1" points="546.5,867.5 394.5,766.5 
	359.5,915.5 "/>
<polygon fill="#2C2C3E" stroke="#2C2C3E" stroke-linejoin="round" stroke-miterlimit="1" points="521.5,342.5 499.5,205.5 
	359.5,326.5 "/>
<polygon fill="#2D2C3F" stroke="#2D2C3F" stroke-linejoin="round" stroke-miterlimit="1" points="499.5,205.5 342.5,255.5 
	359.5,326.5 "/>
<polygon fill="#36354B" stroke="#36354B" stroke-linejoin="round" stroke-miterlimit="1" points="518.5,1108.5 513.5,984.5 
	359.5,915.5 "/>
<polygon fill="#2D2C3F" stroke="#2D2C3F" stroke-linejoin="round" stroke-miterlimit="1" points="521.5,342.5 359.5,326.5 
	338.5,390.5 "/>
<polygon fill="#302F42" stroke="#302F42" stroke-linejoin="round" stroke-miterlimit="1" points="518.5,1108.5 359.5,915.5 
	66.5,1044.5 "/>
<polygon fill="#2E2D40" stroke="#2E2D40" stroke-linejoin="round" stroke-miterlimit="1" points="499.5,205.5 342.5,229.5 
	342.5,255.5 "/>
<polygon fill="#282839" stroke="#282839" stroke-linejoin="round" stroke-miterlimit="1" points="342.5,229.5 172.5,82.5 
	237.5,230.5 "/>
<polygon fill="#2F2F42" stroke="#2F2F42" stroke-linejoin="round" stroke-miterlimit="1" points="344.5,565.5 338.5,390.5 
	231.5,517.5 "/>
<polygon fill="#2C2B3D" stroke="#2C2B3D" stroke-linejoin="round" stroke-miterlimit="1" points="359.5,915.5 113.5,902.5 
	66.5,1044.5 "/>
<polygon fill="#2D2C3F" stroke="#2D2C3F" stroke-linejoin="round" stroke-miterlimit="1" points="394.5,766.5 272.5,568.5 
	71.5,703.5 "/>
<polygon fill="#2C2C3E" stroke="#2C2C3E" stroke-linejoin="round" stroke-miterlimit="1" points="394.5,766.5 71.5,703.5 
	124.5,883.5 "/>
<polygon fill="#2C2C3E" stroke="#2C2C3E" stroke-linejoin="round" stroke-miterlimit="1" points="394.5,766.5 344.5,565.5 
	272.5,568.5 "/>
<polygon fill="#2F2E41" stroke="#2F2E41" stroke-linejoin="round" stroke-miterlimit="1" points="394.5,766.5 124.5,883.5 
	359.5,915.5 "/>
<polygon fill="#29293A" stroke="#29293A" stroke-linejoin="round" stroke-miterlimit="1" points="344.5,565.5 231.5,517.5 
	272.5,568.5 "/>
<polygon fill="#282839" stroke="#282839" stroke-linejoin="round" stroke-miterlimit="1" points="359.5,326.5 237.5,230.5 
	171.5,310.5 "/>
<polygon fill="#2B2B3D" stroke="#2B2B3D" stroke-linejoin="round" stroke-miterlimit="1" points="359.5,326.5 342.5,255.5 
	237.5,230.5 "/>
<polygon fill="#2B2A3C" stroke="#2B2A3C" stroke-linejoin="round" stroke-miterlimit="1" points="359.5,915.5 124.5,883.5 
	113.5,902.5 "/>
<polygon fill="#2A2A3C" stroke="#2A2A3C" stroke-linejoin="round" stroke-miterlimit="1" points="359.5,326.5 171.5,310.5 
	338.5,390.5 "/>
<polygon fill="#2D2C3F" stroke="#2D2C3F" stroke-linejoin="round" stroke-miterlimit="1" points="342.5,229.5 237.5,230.5 
	342.5,255.5 "/>
<polygon fill="#2B2B3D" stroke="#2B2B3D" stroke-linejoin="round" stroke-miterlimit="1" points="338.5,390.5 171.5,310.5 
	231.5,517.5 "/>
<polygon fill="#272738" stroke="#272738" stroke-linejoin="round" stroke-miterlimit="1" points="231.5,517.5 171.5,310.5 
	130.5,538.5 "/>
<polygon fill="#2C2C3E" stroke="#2C2C3E" stroke-linejoin="round" stroke-miterlimit="1" points="249.5,556.5 130.5,538.5 
	71.5,703.5 "/>
<polygon fill="#313144" stroke="#313144" stroke-linejoin="round" stroke-miterlimit="1" points="272.5,568.5 249.5,556.5 
	71.5,703.5 "/>
<polygon fill="#262637" stroke="#262637" stroke-linejoin="round" stroke-miterlimit="1" points="272.5,568.5 231.5,517.5 
	249.5,556.5 "/>
<polygon fill="#29283A" stroke="#29283A" stroke-linejoin="round" stroke-miterlimit="1" points="237.5,230.5 172.5,82.5 
	63.5,122.5 "/>
<polygon fill="#2C2B3E" stroke="#2C2B3E" stroke-linejoin="round" stroke-miterlimit="1" points="249.5,556.5 231.5,517.5 
	130.5,538.5 "/>
<polygon fill="#2A293B" stroke="#2A293B" stroke-linejoin="round" stroke-miterlimit="1" points="237.5,230.5 63.5,122.5 
	171.5,310.5 "/>
<polygon fill="#29283A" stroke="#29283A" stroke-linejoin="round" stroke-miterlimit="1" points="171.5,310.5 -97.5,371.5 
	130.5,538.5 "/>
<polygon fill="#252435" stroke="#252435" stroke-linejoin="round" stroke-miterlimit="1" points="172.5,82.5 52.5,-53.5 63.5,122.5 
	"/>
<polygon fill="#282839" stroke="#282839" stroke-linejoin="round" stroke-miterlimit="1" points="180.5,-56.5 52.5,-53.5 
	172.5,82.5 "/>
<polygon fill="#282739" stroke="#282739" stroke-linejoin="round" stroke-miterlimit="1" points="171.5,310.5 63.5,122.5 
	-97.5,371.5 "/>
<polygon fill="#252535" stroke="#252535" stroke-linejoin="round" stroke-miterlimit="1" points="63.5,122.5 -40.5,119.5 
	-74.5,140.5 "/>
<polygon fill="#2A293B" stroke="#2A293B" stroke-linejoin="round" stroke-miterlimit="1" points="63.5,122.5 -74.5,140.5 
	-97.5,371.5 "/>
<polygon fill="#2D2D3F" stroke="#2D2D3F" stroke-linejoin="round" stroke-miterlimit="1" points="113.5,902.5 -30.5,960.5 
	66.5,1044.5 "/>
<polygon fill="#35344A" stroke="#35344A" stroke-linejoin="round" stroke-miterlimit="1" points="124.5,883.5 -43.5,789.5 
	113.5,902.5 "/>
<polygon fill="#29283A" stroke="#29283A" stroke-linejoin="round" stroke-miterlimit="1" points="124.5,883.5 71.5,703.5 
	-43.5,789.5 "/>
<polygon fill="#2B2A3C" stroke="#2B2A3C" stroke-linejoin="round" stroke-miterlimit="1" points="130.5,538.5 -97.5,526.5 
	-32.5,609.5 "/>
<polygon fill="#29283A" stroke="#29283A" stroke-linejoin="round" stroke-miterlimit="1" points="130.5,538.5 -97.5,371.5 
	-97.5,526.5 "/>
<polygon fill="#2A293B" stroke="#2A293B" stroke-linejoin="round" stroke-miterlimit="1" points="130.5,538.5 -32.5,609.5 
	71.5,703.5 "/>
<polygon fill="#272738" stroke="#272738" stroke-linejoin="round" stroke-miterlimit="1" points="63.5,122.5 52.5,-53.5 2.5,-56.5 
	"/>
<polygon fill="#2A293B" stroke="#2A293B" stroke-linejoin="round" stroke-miterlimit="1" points="113.5,902.5 -43.5,789.5 
	-30.5,960.5 "/>
<polygon fill="#2F2E41" stroke="#2F2E41" stroke-linejoin="round" stroke-miterlimit="1" points="-30.5,960.5 -43.5,789.5 
	-86.5,888.5 "/>
<polygon fill="#252435" stroke="#252435" stroke-linejoin="round" stroke-miterlimit="1" points="2.5,-56.5 -97.5,-7.5 -40.5,119.5 
	"/>
<polygon fill="#262536" stroke="#262536" stroke-linejoin="round" stroke-miterlimit="1" points="63.5,122.5 2.5,-56.5 -40.5,119.5 
	"/>
<polygon fill="#2B2A3C" stroke="#2B2A3C" stroke-linejoin="round" stroke-miterlimit="1" points="71.5,703.5 -32.5,609.5 
	-97.5,728.5 "/>
<polygon fill="#2B2B3D" stroke="#2B2B3D" stroke-linejoin="round" stroke-miterlimit="1" points="71.5,703.5 -97.5,728.5 
	-43.5,789.5 "/>
<polygon fill="#2A293B" stroke="#2A293B" stroke-linejoin="round" stroke-miterlimit="1" points="66.5,1044.5 -30.5,960.5 
	-23.5,1108.5 "/>
<polygon fill="#232333" stroke="#232333" stroke-linejoin="round" stroke-miterlimit="1" points="-30.5,960.5 -97.5,1020.5 
	-97.5,1044.5 "/>
<polygon fill="#4D4B69" stroke="#4D4B69" stroke-linejoin="round" stroke-miterlimit="1" points="-23.5,1108.5 -97.5,1044.5 
	-29.5,1108.5 "/>
<polygon fill="#2C2C3E" stroke="#2C2C3E" stroke-linejoin="round" stroke-miterlimit="1" points="-23.5,1108.5 -30.5,960.5 
	-97.5,1044.5 "/>
<polygon fill="#282839" stroke="#282839" stroke-linejoin="round" stroke-miterlimit="1" points="2.5,-56.5 -86.5,-56.5 -97.5,-7.5 
	"/>
<polygon fill="#2A293B" stroke="#2A293B" stroke-linejoin="round" stroke-miterlimit="1" points="-43.5,789.5 -97.5,728.5 
	-97.5,771.5 "/>
<polygon fill="#232333" stroke="#232333" stroke-linejoin="round" stroke-miterlimit="1" points="-40.5,119.5 -97.5,-7.5 
	-74.5,140.5 "/>
<polygon fill="#282739" stroke="#282739" stroke-linejoin="round" stroke-miterlimit="1" points="-30.5,960.5 -86.5,888.5 
	-97.5,977.5 "/>
<polygon fill="#29293A" stroke="#29293A" stroke-linejoin="round" stroke-miterlimit="1" points="-30.5,960.5 -97.5,977.5 
	-97.5,1020.5 "/>
<polygon fill="#292839" stroke="#292839" stroke-linejoin="round" stroke-miterlimit="1" points="-29.5,1108.5 -97.5,1044.5 
	-97.5,1108.5 "/>
<polygon fill="#262536" stroke="#262536" stroke-linejoin="round" stroke-miterlimit="1" points="-43.5,789.5 -97.5,771.5 
	-86.5,888.5 "/>
<polygon fill="#2A293B" stroke="#2A293B" stroke-linejoin="round" stroke-miterlimit="1" points="-32.5,609.5 -97.5,526.5 
	-97.5,728.5 "/>
<polygon fill="#2B2A3C" stroke="#2B2A3C" stroke-linejoin="round" stroke-miterlimit="1" points="-86.5,-56.5 -97.5,-56.5 
	-97.5,-7.5 "/>
<polygon fill="#242434" stroke="#242434" stroke-linejoin="round" stroke-miterlimit="1" points="-74.5,140.5 -97.5,-7.5 
	-97.5,371.5 "/>
<polygon fill="#37364C" stroke="#37364C" stroke-linejoin="round" stroke-miterlimit="1" points="-86.5,888.5 -97.5,771.5 
	-97.5,977.5 "/>
</svg>
